<svg xmlns="http://www.w3.org/2000/svg" width="32" height="32" fill="none"><path stroke="#407BFF" stroke-linecap="round" stroke-linejoin="round" stroke-width="2" d="M15.227 20.227 23 28a3.536 3.536 0 0 0 5-5l-7.836-7.836m-4.937 5.063 3.328-4.04c.422-.512.986-.835 1.61-1.022.734-.218 1.551-.25 2.324-.186a6 6 0 0 0 5.982-8.448L24.103 10.9a4.006 4.006 0 0 1-3-3l4.368-4.368a6 6 0 0 0-8.448 5.981c.121 1.435-.095 3.019-1.206 3.934l-.136.113m-.454 6.667L9.02 27.764a3.397 3.397 0 1 1-4.781-4.781l9.116-7.507L7.879 10H6L3 5l2-2 5 3v1.879l5.68 5.68-2.327 1.916M24.5 24.5 21 21M6.49 25.5h.01v.01h-.01v-.01Z"/></svg>